<?xml version="1.0" encoding="UTF-8"?>
<svg xmlns="http://www.w3.org/2000/svg"
     viewBox="80 340 500 200"
     preserveAspectRatio="xMidYMid meet"
     role="img" aria-label="Alinkah">
  <title>Alinkah</title>
  <g fill="#2f7a7b" shape-rendering="geometricPrecision">
    <path d="M149.71,469.22h-17.64v-8.67h-.24c-2.01,3.38-4.51,5.92-7.52,7.61s-6.42,2.54-10.24,2.54c-5.23,0-9.73-1.6-13.48-4.81-3.76-3.21-5.63-7.7-5.63-13.48s1.86-10.15,5.57-13.69c3.72-3.54,9.53-5.84,17.43-6.9l14.22-1.89v-1.18c0-2.87-.92-5.04-2.77-6.52-1.85-1.48-4.41-2.21-7.67-2.21-2.48,0-5.24.41-8.29,1.24-3.05.83-6.15,2.14-9.29,3.95l-6.31-11.03c4.13-2.4,8.23-4.14,12.3-5.22,4.07-1.08,8.5-1.62,13.3-1.62,9.01,0,15.63,2.14,19.88,6.43,4.25,4.29,6.37,10.74,6.37,19.35v36.1ZM132.19,444.67v-4.07l-10.97,1.42c-3.03.39-5.3,1.31-6.81,2.74-1.51,1.44-2.27,3.25-2.27,5.46s.74,3.86,2.21,5.22c1.47,1.36,3.47,2.04,5.99,2.04,3.5,0,6.35-1.21,8.55-3.63,2.2-2.42,3.3-5.48,3.3-9.17Z"/>
    <path d="M164.46,469.22v-89.44h18.64v89.44h-18.64Z"/>
    <path d="M208.23,400.49c-3.23,0-5.86-.98-7.91-2.95-2.05-1.97-3.07-4.4-3.07-7.32s1.02-5.5,3.07-7.4c2.04-1.91,4.68-2.86,7.91-2.86s5.91.95,7.93,2.86c2.03,1.91,3.04,4.38,3.04,7.4s-1.01,5.5-3.04,7.4c-2.03,1.91-4.67,2.86-7.93,2.86ZM217.43,469.22h-18.64v-60.41h18.64v60.41Z"/>
    <path d="M291.47,469.22h-18.58v-33.57c0-4.68-.84-8.19-2.51-10.53-1.67-2.34-4.18-3.51-7.52-3.51s-5.88,1.24-7.96,3.72c-2.09,2.48-3.13,5.62-3.13,9.44v34.45h-18.64v-60.41h18.64v9.56h.24c2.24-3.7,4.98-6.46,8.2-8.29,3.22-1.83,6.96-2.74,11.21-2.74,6.69,0,11.7,2.08,15.04,6.22,3.34,4.15,5.01,10.37,5.01,18.67v36.99Z"/>
    <path d="M366.75,469.22h-22.36l-19.29-29.97h-.24v29.97h-18.64v-89.44h18.64v56.93h.24l17.99-27.9h22.12l-21.65,28.38,23.18,32.03Z"/>
    <path d="M424.04,469.22h-17.64v-8.67h-.24c-2.01,3.38-4.51,5.92-7.52,7.61s-6.42,2.54-10.24,2.54c-5.23,0-9.73-1.6-13.48-4.81-3.76-3.21-5.63-7.7-5.63-13.48s1.86-10.15,5.58-13.69c3.72-3.54,9.53-5.84,17.43-6.9l14.22-1.89v-1.18c0-2.87-.92-5.04-2.77-6.52-1.85-1.48-4.41-2.21-7.67-2.21-2.48,0-5.24.41-8.29,1.24s-6.15,2.14-9.29,3.95l-6.31-11.03c4.13-2.4,8.23-4.14,12.3-5.22,4.07-1.08,8.5-1.62,13.3-1.62,9.01,0,15.63,2.14,19.88,6.43,4.25,4.29,6.37,10.74,6.37,19.35v36.1ZM406.51,444.67v-4.07l-10.97,1.42c-3.03.39-5.3,1.31-6.81,2.74-1.51,1.44-2.27,3.25-2.27,5.46s.74,3.86,2.21,5.22c1.48,1.36,3.47,2.04,5.99,2.04,3.5,0,6.35-1.21,8.55-3.63,2.2-2.42,3.3-5.48,3.3-9.17Z"/>
    <path d="M496.78,469.22h-18.58v-34.33c0-4.44-.81-7.77-2.42-9.97-1.61-2.2-4.03-3.3-7.26-3.3s-5.98,1.24-8.02,3.72c-2.05,2.48-3.07,5.62-3.07,9.44v34.45h-18.64v-89.44h18.64v37.99h.24c2.28-3.5,4.97-6.12,8.08-7.85,3.11-1.73,6.61-2.6,10.5-2.6,6.84,0,11.98,2.06,15.4,6.19,3.42,4.13,5.13,10.32,5.13,18.58v37.11Z"/>
  </g>
</svg>
